<?xml version="1.0" standalone="no"?>
<!DOCTYPE svg PUBLIC "-//W3C//DTD SVG 1.1//EN" "http://www.w3.org/Graphics/SVG/1.1/DTD/svg11.dtd" >
<svg xmlns="http://www.w3.org/2000/svg">
<metadata>
Created by FontForge 20120731 at Tue Mar 21 11:51:04 2017
 By admin
</metadata>
<defs>
<font id="iconfont" horiz-adv-x="1024" >
  <font-face 
    font-family="iconfont"
    font-weight="500"
    font-stretch="normal"
    units-per-em="1024"
    panose-1="2 0 6 3 0 0 0 0 0 0"
    ascent="896"
    descent="-128"
    x-height="792"
    bbox="0 -128 1364 896"
    underline-thickness="0"
    underline-position="0"
    unicode-range="U+0078-E622"
  />
<missing-glyph 
 />
    <glyph glyph-name=".notdef" 
 />
    <glyph glyph-name=".notdef" 
 />
    <glyph glyph-name=".null" horiz-adv-x="0" 
 />
    <glyph glyph-name="nonmarkingreturn" horiz-adv-x="341" 
 />
    <glyph glyph-name="x" unicode="x" horiz-adv-x="1001" 
d="M281 543q-27 -1 -53 -1h-83q-18 0 -36.5 -6t-32.5 -18.5t-23 -32t-9 -45.5v-76h912v41q0 16 -0.5 30t-0.5 18q0 13 -5 29t-17 29.5t-31.5 22.5t-49.5 9h-133v-97h-438v97zM955 310v-52q0 -23 0.5 -52t0.5 -58t-10.5 -47.5t-26 -30t-33 -16t-31.5 -4.5q-14 -1 -29.5 -0.5
t-29.5 0.5h-32l-45 128h-439l-44 -128h-29h-34q-20 0 -45 1q-25 0 -41 9.5t-25.5 23t-13.5 29.5t-4 30v167h911zM163 247q-12 0 -21 -8.5t-9 -21.5t9 -21.5t21 -8.5q13 0 22 8.5t9 21.5t-9 21.5t-22 8.5zM316 123q-8 -26 -14 -48q-5 -19 -10.5 -37t-7.5 -25t-3 -15t1 -14.5
t9.5 -10.5t21.5 -4h37h67h81h80h64h36q23 0 34 12t2 38q-5 13 -9.5 30.5t-9.5 34.5q-5 19 -11 39h-368zM336 498v228q0 11 2.5 23t10 21.5t20.5 15.5t34 6h188q31 0 51.5 -14.5t20.5 -52.5v-227h-327z" />
    <glyph glyph-name="icon-arrow" unicode="&#xe605;" 
d="M329 -98l409 412l72 73l-72 72l-404 407q-13 12 -34 21t-39 9q-42 0 -72 -30t-30 -72q0 -18 8.5 -39t20.5 -34l405 -407v145l-410 -412q-12 -13 -20.5 -34t-8.5 -39q0 -42 30 -72t72 -30q18 0 39 9t34 21z" />
    <glyph glyph-name="icon-borad-renew" unicode="&#xe606;" horiz-adv-x="1107" 
d="M0 242q0 60 40.5 102.5t98.5 42.5h830q57 0 97.5 -42.5t40.5 -102.5v-219q0 -60 -40.5 -102.5t-97.5 -42.5h-830q-58 0 -98.5 42.5t-40.5 102.5v219zM565 55q32 0 54.5 22.5t22.5 54.5t-22.5 55t-54.5 23t-55 -23t-23 -55t23 -54.5t55 -22.5zM786 55q32 0 54.5 22.5
t22.5 54.5t-22.5 55t-54.5 23t-55 -23t-23 -55t23 -54.5t55 -22.5zM985 55q32 0 55 22.5t23 54.5t-23 55t-55 23t-54.5 -23t-22.5 -55t22.5 -54.5t54.5 -22.5zM199.5 896q18.5 0 31.5 -16t13 -39v-454h-89v454q0 23 13 39t31.5 16zM952 691v-282h-89v282q0 21 13 35.5
t31.5 14.5t31.5 -14.5t13 -35.5z" />
    <glyph glyph-name="icon-chart" unicode="&#xe607;" 
d="M205 563q0 32 22.5 54.5t54 22.5t54 -22.5t22.5 -54.5v-409q0 -32 -22.5 -54.5t-54 -22.5t-54 22.5t-22.5 54.5v409zM512 666q0 32 22.5 54t54.5 22t54.5 -22t22.5 -54v-513q0 -32 -22.5 -54t-54.5 -22t-54.5 22t-22.5 54v513v0zM819 768q0 32 22.5 54.5t54.5 22.5
t54.5 -22.5t22.5 -54.5v-615q0 -31 -22.5 -53.5t-54.5 -22.5t-54.5 22t-22.5 54v615zM0 896v-819q0 -92 56.5 -148.5t148.5 -56.5h819v51h-819q-70 1 -111.5 42.5t-42.5 111.5v819h-51z" />
    <glyph glyph-name="icon-close" unicode="&#xe608;" 
d="M512 332l-194 -193l-25 -26l-52 52l26 25l193 194l-193 194l-26 25l52 52l25 -26l194 -193l194 193l25 26l52 -52l-26 -25l-193 -194l193 -194l26 -25l-52 -52l-25 26zM512 -128q139 0 257 68.5t186.5 186.5t68.5 257t-68.5 257t-186.5 186.5t-257 68.5t-257 -68.5
t-186.5 -186.5t-68.5 -257t68.5 -257t186.5 -186.5t257 -68.5z" />
    <glyph glyph-name="icon-boradband" unicode="&#xe609;" horiz-adv-x="1050" 
d="M980 266h-653l-24 303h-23l-23 -303h-187v0q-29 0 -49.5 -20.5t-20.5 -49.5v0v-234v0q0 -29 20.5 -49.5t49.5 -20.5v0h910v0q29 0 49.5 20.5t20.5 49.5v234q0 29 -20.5 49.5t-49.5 20.5v0zM140 32q-19 0 -33 14t-14 33t14 33t33 14t33 -14t14 -33t-14 -33t-33 -14z
M280 32q-19 0 -33 14t-14 33t14 33t33 14t33 -14t14 -33t-14 -33t-33 -14zM420 32q-19 0 -33 14t-14 33t14 33t33 14t33 -14t14 -33t-14 -33t-33 -14zM910.5 32q-19.5 0 -33 14t-13.5 33t13.5 33t33 14t33 -14t13.5 -33t-13.5 -33t-33 -14zM257 628q0 -15 10 -25t24.5 -10
t25 10t10.5 25q-1 14 -11 24t-24 10t-24.5 -10t-10.5 -24v0zM124 772q31 36 76 56t96 20q50 0 94.5 -19.5t76.5 -54.5q18 -6 30.5 1.5t5.5 30.5q-38 42 -92 66t-115 24q-59 0 -111.5 -22.5t-91.5 -62.5q1 -34 31 -39v0zM350 667q31 -6 35 15q-13 23 -37 36.5t-52 13.5
q-27 0 -50.5 -12.5t-36.5 -34.5q2 -28 31 -23q7 14 23.5 23.5t32.5 9.5v0q35 0 54 -28zM413 718q14 -2 22.5 2.5t8.5 22.5q-26 32 -64.5 50.5t-83.5 18.5q-89 0 -146 -66q2 -25 29 -29q44 57 117 57t117 -56v0z" />
    <glyph glyph-name="icon-customer" unicode="&#xe60a;" horiz-adv-x="1408" 
d="M1063 281q29 -14 29 -49v-221v-1q0 -21 -13 -37q-12 -16 -32 -16h-1h-713v0q-20 0 -32 16q-13 16 -13 37v1v221q0 35 29 49l279 129q-56 34 -85 96q-27 54 -27 117v1q0 19 3 36q7 42 23 79q-1 3 5.5 14.5t21 29.5t30.5 33q53 48 123 48q71 0 125 -49.5t73 -125.5
q7 -36 7 -65v0q0 -60 -24 -114q-28 -63 -84 -97l83 -39zM288 342q-40 -18 -58 -58q-11 -13 -11 -52v-188h-149h-1q-16 0 -25 13q-11 13 -11 29v2v177q0 32 24 41l225 105q-56 35 -77 97q-2 1 -5 11t-5.5 27.5t-2.5 33.5v4q0 39 13 74.5t35.5 61.5t52.5 41.5t64 15.5
q24 0 44 -7.5t39 -19.5q-25 -59 -25 -126v0q0 -51 15 -98q14 -47 41 -85q-27 -30 -66 -42l-117 -57v0zM1328 306q23 -12 23 -41v-177q0 -19 -10 -31q-10 -13 -26 -13v0h-154v188q0 36 -19 66q-22 37 -63 50l-129 63q-39 23 -59 63q25 -3 37.5 11.5t20.5 42.5q14 45 14 96v3
q0 64 -24 123q39 22 78 28h-1l-10 -2h3q10 1 17 1q34 0 64.5 -15.5t53.5 -41.5t36 -61.5t13 -75.5q0 -55 -25 -100.5t-63 -70.5l223 -106v0z" />
    <glyph glyph-name="icon-fill-card" unicode="&#xe60b;" 
d="M883 602v-642q0 -35 -27.5 -59.5t-66.5 -24.5h-554q-39 0 -66.5 24.5t-27.5 59.5v831q0 35 27.5 59.5t66.5 24.5h444zM733 350q0 18 -14 31t-34 13h-70v-96h118v52zM733 264h-464v-141h464v141zM733 90h-118v-97h70q20 0 34 13t14 31v53zM577 -7v97h-122v-97h122zM418 -7
v97h-149v-53q0 -18 14 -31t35 -13h100zM269 298h149v96h-100q-20 0 -34.5 -13t-14.5 -31v-52zM455 394v-96h122v96h-122z" />
    <glyph glyph-name="icon-mail" unicode="&#xe60c;" horiz-adv-x="1365" 
d="M876 383l481 473q-7 16 -25 27.5t-36 11.5h-1227q-18 0 -36 -11.5t-26 -27.5l482 -473q80 -51 193.5 -51t193.5 51zM0 762v-760l401 381l-401 379v0zM964 383l400 -381v760zM901 324q-91 -58 -219 -58t-219 58l-18 17l-437 -432q19 -37 61 -37h1227q41 0 60 37l-437 432z
" />
    <glyph glyph-name="icon-layout" unicode="&#xe60d;" 
d="M964 -128h-181v0q-28 0 -44 16t-16 44v0v181v0q0 28 16 44t44 16v0h181q28 0 44 -16t16 -44v-181q0 -28 -16 -44t-44 -16zM964 233h-181v0q-28 0 -44 16t-16 45v0v180v0q0 29 16 45t44 16v0h181q28 -1 44 -16.5t16 -44.5v-180v0q0 -29 -16 -44.5t-44 -16.5zM964 595h-181
v0q-28 0 -44 16t-16 44v0v181v0q0 28 16 44t44 16v0h181q28 0 44 -16t16 -44v-181q0 -28 -16 -44t-44 -16zM602 -128h-180v0q-29 0 -44.5 16t-16.5 44v181q1 28 16.5 44t44.5 16v0h180q29 0 44.5 -16t16.5 -44v-181q-1 -28 -16.5 -44t-44.5 -16zM607 233h-552q-25 1 -40 16
t-15 40v0v552q0 25 15 40t40 15h552q25 0 40 -15t16 -40v-552v0q0 -25 -15.5 -40.5t-40.5 -15.5zM60 173h181v0q28 0 44 -16t16 -44v0v-181v0q0 -28 -16 -44t-44 -16h-181q-28 0 -44 16t-16 44v181q0 28 16 44t44 16z" />
    <glyph glyph-name="icon-help" unicode="&#xe60e;" 
d="M512 -128q139 0 257 68.5t186.5 186.5t68.5 257t-68.5 257t-186.5 186.5t-257 68.5t-257 -68.5t-186.5 -186.5t-68.5 -257t68.5 -257t186.5 -186.5t257 -68.5zM319 517q0 37 24 75t69.5 62.5t106.5 24.5q56 0 99 -20.5t66.5 -56.5t23.5 -78q0 -33 -13 -58
q-13 -24 -32 -43t-66 -61q-14 -12 -21 -21q-7 -7 -12 -16q-4 -8 -6 -16q-2 -6 -7 -26q-7 -41 -46 -41h-1q-19 0 -33 13.5t-14 39.5q0 32 10 56t27 42q17 19 45 43q25 22 36 33.5t18.5 24.5t7.5 29v0q0 32 -23 53t-59 21q-43 0 -63.5 -21.5t-34.5 -63.5q-13 -44 -50 -44h-1
q-21 0 -36 16q-15 15 -15 33zM509 91q-23 0 -41 15t-18 43q0 24 17 41t42 17t41 -17q17 -16 17 -40v-1q0 -27 -17 -43q-17 -15 -40 -15h-1v0z" />
    <glyph glyph-name="icon-notice" unicode="&#xe60f;" horiz-adv-x="1204" 
d="M602 896l-301 -241h-180v0q-50 0 -85.5 -35.5t-35.5 -84.5v-302q0 -50 35.5 -85t85.5 -35h180l301 -241q25 0 42.5 18t17.5 42v904q0 24 -17.5 42t-42.5 18v0zM783 534v61q83 -24 132 -84t49 -157q0 -56 -51 -107t-130 -74v60q54 22 87 57t33 64q0 133 -120 180zM843 775
v61q159 -39 260 -169.5t101 -312.5q0 -142 -102.5 -263t-258.5 -159v60q130 38 215.5 141t85.5 221q0 154 -82.5 268t-218.5 153z" />
    <glyph glyph-name="icon-order" unicode="&#xe610;" 
d="M410 794h-103v-154h410v154h-103q0 42 -30 72t-72 30t-72 -30t-30 -72zM256 794h-52q-42 0 -72 -30t-30 -73v-717q0 -42 30 -72t72 -30h616q42 0 72 30t30 72v717v1q0 42 -30 72t-72 30h-52v-205h-512v205zM256 410q0 10 7.5 17.5t18.5 7.5h460v0q10 0 18 -7.5t8 -17.5
q0 -11 -7.5 -18.5t-18.5 -7.5h-460v0q-10 0 -18 7.5t-8 18.5zM256 256q0 11 7.5 18.5t18.5 7.5h460v0q10 0 18 -7.5t8 -18.5t-7.5 -18.5t-18.5 -7.5h-460v0q-10 0 -18 7.5t-8 18.5zM256 102q0 11 7.5 18.5t18.5 7.5h460v0q10 0 18 -7.5t8 -18.5q0 -10 -7.5 -17.5t-18.5 -7.5
h-460v0q-10 0 -18 7.5t-8 17.5z" />
    <glyph glyph-name="icon-phone" unicode="&#xe611;" 
d="M896 0q0 -4 -1 -12.5t-1 -13.5t2 -6q-2 -2 -6 -8t-5.5 -8t-4.5 -7t-4 -6.5t-3.5 -5.5t-3.5 -6t-2 -5.5t-1.5 -6t-1 -5.5t-0.5 -6q-39 -6 -64 -32q-10 2 -20.5 2t-23.5 -1t-20 -1h-448q-7 0 -20 1t-23.5 1t-20.5 -2q-25 26 -64 32q0 10 -4.5 21t-8.5 16.5t-19 26.5
q2 1 2 6t-1 13.5t-1 12.5v768q0 4 1 12t1 13t-2 7q30 41 32 57v7q39 6 64 32q10 -2 20.5 -2t23.5 1t20 1h448q7 0 20 -1t23.5 -1t20.5 2q25 -26 64 -32q0 -10 4.5 -20.5t9 -17t18.5 -26.5q-2 -2 -2 -7t1 -13t1 -12v-768zM800 704h-576v-640h576v640zM512 32q-32 0 -32 -32
q-18 1 -25 -8t-7 -24q0 -32 32 -32q0 -32 32 -32q34 0 32 32q32 0 32 32q0 15 -7 24t-25 8q2 32 -32 32zM608 832v0h-32h-128h-32v0v-32h32h128q7 0 13.5 0.5t10 0.5t8.5 -1q-1 3 -1 6t0.5 10.5t0.5 15.5z" />
    <glyph glyph-name="icon-recharge-big" unicode="&#xe612;" horiz-adv-x="1107" 
d="M891 81h-445v39h432q77 1 131 55t54 131v23h44v-33v0q0 -89 -63 -152t-153 -63v0zM1077 389h-68v0h-308q-42 0 -71 29t-29 70t29 70.5t71 29.5h308v0h68v0h30v-199h-30v0zM707 544q-23 0 -39.5 -16.5t-16.5 -39.5t16.5 -39.5t39.5 -16.5t39.5 16.5t16.5 39.5t-16 39.5
t-40 16.5v0zM1063 671q0 76 -54 130.5t-131 54.5h-517q-77 0 -131.5 -54.5t-54.5 -130.5v-365q0 -34 12 -65q-24 -1 -47 -3q-8 29 -8 58v384q0 90 63 153t152 63h544v0q90 0 153 -63.5t63 -152.5v-32h-44v23zM400 146q0 -24 -58.5 -41t-141.5 -17t-141.5 17t-58.5 41
t58.5 41t141.5 17t141.5 -17t58.5 -41v0zM2 111q3 -7 4 -7l8 -7l15 -8l20 -8l28 -8l29 -5l44 -6l46 -1l42 1l39 4l39 6l30 7l20 8l12 5l14 11l7 11l1 -66q0 -24 -58.5 -41t-141.5 -17t-141.5 17t-58.5 41v68q1 -4 2 -5v0zM2 18q1 -2 4 -7v0l8 -7l15 -9l20 -8l28 -8l29 -5
l44 -5l46 -2l42 1l39 4l39 6l30 7l20 8l12 6l14 10l7 12l1 -66q0 -25 -58.5 -42t-141.5 -17t-141.5 17t-58.5 42v67q1 -4 2 -4zM701 329h338v-23q0 -67 -47 -114t-114 -47h-449q17 12 17 25q0 29 -67.5 49.5t-165.5 21.5q-13 31 -13 65v0v365q0 67 47 114t114 47h517
q67 0 114 -47t47 -114v-23h-338q-66 0 -113 -47t-47 -113t47 -112.5t113 -46.5v0zM437 118l-8 -6q0 5 -1 8h10z" />
    <glyph glyph-name="icon-package" unicode="&#xe613;" 
d="M983 16l-127 -127q-14 -14 -34 -14t-34 14l-63 64q-14 14 -14 33v1q0 19 14 33t33.5 14t33.5 -14l30 -30l93 94q14 14 34 14v0q20 0 34 -14t14 -33.5t-14 -34.5zM821 57q-11 11 -29.5 18t-33.5 7q-39 0 -67 -28t-28 -67v0q0 -40 28 -68v0l44 -44h-660q-20 0 -34 14
t-14 34v829q0 20 14 34t34 14h79v-48v0q0 -39 28 -67t67.5 -28t67.5 28t28 67v0v48h48v-48v0q0 -39 28 -67t67.5 -28t67 28t27.5 67v0v48h48v-48v0q0 -39 28 -67t67.5 -28t67.5 28t28 67v0v48h79q20 0 34 -14t14 -34v-606q-39 0 -67 -28l-61 -61v0zM154 74.5
q0 -16.5 11.5 -28.5t28.5 -12h302q16 0 28 12t12 28.5t-12 28t-28 11.5h-302q-17 0 -28.5 -11.5t-11.5 -28zM774 529h-572q-20 0 -34 -14t-14 -34t14 -34t34 -14h572q20 0 34 14t14 34t-14 34t-34 14v0zM774 322h-572q-20 0 -34 -14.5t-14 -34t14 -33.5t34 -14h572
q20 0 34 14t14 33.5t-14 34t-34 14.5v0zM726.5 704q-19.5 0 -33.5 14t-14 34v96q0 20 14 34t33.5 14t33.5 -14t14 -34v-96q0 -20 -14 -34t-33.5 -14zM488 704q-20 0 -34 14t-14 34v96q0 20 14 34t34 14t34 -14t14 -34v-96q0 -20 -14 -34t-34 -14zM250 704q-20 0 -34 14
t-14 34v96q0 20 14 34t33.5 14t33.5 -14t14 -34v-96q0 -20 -14 -34t-33 -14v0z" />
    <glyph glyph-name="icon-right-menu" unicode="&#xe614;" horiz-adv-x="1152" 
d="M0 832v0q0 26 18.5 45t45.5 19h1024q27 0 45.5 -18.5t18.5 -45.5v-320v0q0 -26 -18.5 -45t-45.5 -19h-1024h-1q-26 0 -44.5 18.5t-18.5 44.5v1v320zM224 576q40 0 68 28t28 68t-28 68t-68 28t-68 -28t-28 -68t28 -68t68 -28zM0 256v0q0 26 18.5 45t45.5 19h1024
q27 0 45.5 -18.5t18.5 -45.5v-320v0q0 -26 -18.5 -45t-45.5 -19h-1024h-1q-26 0 -44.5 18.5t-18.5 44.5v1v320zM224 0q40 0 68 28t28 68t-28 68t-68 28t-68 -28t-28 -68t28 -68t68 -28z" />
    <glyph glyph-name="icon-shrink" unicode="&#xe615;" 
d="M0 896h1024v-171h-1024v171zM0 469h1024v-170h-1024v170zM0 43h1024v-171h-1024v171z" />
    <glyph glyph-name="icon-sys-menu" unicode="&#xe616;" 
d="M0 839q0 24 16.5 40.5t40.5 16.5h341q24 0 40.5 -16.5t16.5 -40.5v-341q0 -24 -16.5 -40.5t-40.5 -16.5h-341q-24 0 -40.5 16.5t-16.5 40.5v341zM569 839q0 24 16.5 40.5t40.5 16.5h341q24 0 40.5 -16.5t16.5 -40.5v-341q0 -24 -16.5 -40.5t-40.5 -16.5h-341
q-24 0 -40.5 16.5t-16.5 40.5v341zM0 270q0 24 16.5 40.5t40.5 16.5h341q24 0 40.5 -16.5t16.5 -40.5v-341q0 -24 -16.5 -40.5t-40.5 -16.5h-341q-24 0 -40.5 16.5t-16.5 40.5v341v0zM569 270q0 24 16.5 40.5t40.5 16.5h341q24 0 40.5 -16.5t16.5 -40.5v-341
q0 -24 -16.5 -40.5t-40.5 -16.5h-341q-24 0 -40.5 16.5t-16.5 40.5v341z" />
    <glyph glyph-name="icon-user" unicode="&#xe617;" 
d="M641 316q69 42 98 129t29 195q0 122 -72.5 189t-183.5 67t-183.5 -67t-72.5 -189q0 -107 29 -194t97 -130q-129 -34 -221.5 -125t-108.5 -217q-2 -6 0 -22.5t5 -34t14.5 -31t27.5 -14.5q613 3 828 2q16 0 26.5 13.5t14 30.5t5 33.5t-0.5 22.5q-18 126 -110.5 216.5
t-220.5 125.5z" />
    <glyph glyph-name="icon-telephone" unicode="&#xe618;" 
d="M919 896h-516v0q-28 0 -48 -20t-20 -49v0v-704q0 -29 20 -49t48 -20h34v-5q0 -37 -13 -64t-35 -41t-44 -20t-45 -6q-22 0 -43.5 7t-42 22t-33 42.5t-12.5 64.5h28q28 0 48.5 20t20.5 49v704v0q0 29 -20.5 49t-48.5 20h-116q-28 0 -48 -20t-20 -49v-704q0 -29 20 -49
t48 -20h35q2 -38 13 -68.5t25.5 -49t35.5 -32t37 -19.5t36 -9.5t25.5 -3.5h13.5h1h15.5t26.5 3.5t35 9.5t35.5 19.5t33 32t23 49t9.5 68.5h438q28 0 48.5 20t20.5 49v704v0q0 29 -20.5 49t-48.5 20zM418 778q0 10 6.5 16.5t15.5 6.5h442q9 0 16 -6.5t7 -16.5v-129
q0 -10 -7 -16.5t-16 -6.5h-441v0q-10 0 -16.5 6.5t-6.5 15.5v1v129v0zM542 160q0 -9 -7 -16t-16 -7h-78q-10 0 -16.5 7t-6.5 16v47q0 10 6.5 16.5t16.5 6.5h78q9 0 16 -6.5t7 -16.5v-47zM542 315q0 -9 -7 -15.5t-16 -6.5h-78q-10 0 -16.5 6.5t-6.5 15.5v48q0 9 6.5 15.5
t16.5 6.5h78q9 0 16 -6.5t7 -15.5v-48zM542 472q0 -9 -7 -16t-16 -7h-78q-10 0 -16.5 7t-6.5 16v47q0 10 6.5 16.5t16.5 6.5h78q9 0 16 -6.5t7 -16.5v-47zM729 160q0 -9 -7 -16t-16 -7h-78q-10 0 -16.5 7t-6.5 16v47q0 10 6.5 16.5t16.5 6.5h78q9 0 16 -6.5t7 -16.5v-47z
M729 315q0 -9 -7 -15.5t-16 -6.5h-78q-10 0 -16.5 6.5t-6.5 15.5v48q0 9 6.5 15.5t16.5 6.5h78q9 0 16 -6.5t7 -15.5v-48zM729 472q0 -9 -7 -16t-16 -7h-78q-10 0 -16.5 7t-6.5 16v47q0 10 6.5 16.5t16.5 6.5h78q9 0 16 -6.5t7 -16.5v-47zM905 160q0 -9 -6.5 -16t-16.5 -7
h-68v0q-9 0 -16 7t-7 16v47q0 10 7 16.5t16 6.5h68q10 0 16.5 -6.5t6.5 -16.5v-47zM905 315q0 -9 -6.5 -15.5t-16.5 -6.5h-68v0q-9 0 -16 6.5t-7 15.5v48q0 9 7 15.5t16 6.5h68q10 0 16.5 -6.5t6.5 -15.5v-48zM905 472q0 -9 -6.5 -16t-16.5 -7h-68v0q-9 0 -16 7t-7 16v47
q0 10 7 16.5t16 6.5h68q10 0 16.5 -6.5t6.5 -16.5v-47z" />
    <glyph glyph-name="icon-search" unicode="&#xe61b;" 
d="M983 1l-173 173q91 120 91 272q0 91 -36 174.5t-96 144t-143.5 96t-175 35.5t-175 -35.5t-144 -96t-96 -144t-35.5 -175t35.5 -175t96 -143.5t144 -96t174.5 -36q153 0 274 93l173 -173zM450.5 105q-92.5 0 -171 45.5t-124 124t-45.5 171t45.5 171t124 124t171 45.5
t171 -45.5t124 -124t45.5 -171t-45.5 -171t-124 -124t-171 -45.5z" />
    <glyph glyph-name="icon-recharge" unicode="&#xe61d;" 
d="M505 803q-91 0 -174 -35.5t-143 -95.5t-95.5 -143t-35.5 -174t35.5 -174t95.5 -143t143 -96t174 -36t174 36t143 96t96 143t36 174t-36 174t-96 143t-143 95.5t-174 35.5zM505 -44q-108 0 -200 53.5t-145.5 145.5t-53.5 200t53.5 200t145.5 145.5t200 53.5t200 -53.5
t145.5 -145.5t53.5 -200t-53.5 -200t-145.5 -145.5t-200 -53.5zM508 727zM351 727q0 -65 46 -111t111.5 -46t111.5 46t46 111t-46 111.5t-111.5 46.5t-111.5 -46.5t-46 -111.5zM190 40zM33 40q0 -65 46 -111.5t111 -46.5t111.5 46.5t46.5 111.5t-46.5 111t-111.5 46
t-111 -46t-46 -111zM981 39.5q0 -65.5 -46 -111.5t-111.5 -46t-111.5 46t-46 111.5t46 111.5t111.5 46t111.5 -46t46 -111.5z" />
    <glyph glyph-name="icon-workspace" unicode="&#xe61f;" 
d="M965 896h-906q-25 0 -42 -18.5t-17 -44.5v-579q0 -26 17 -44.5t42 -18.5h906q25 0 42 18.5t17 44.5v579q0 26 -17 44.5t-42 18.5zM863 320h-702v0q-6 0 -10.5 4.5t-4.5 10.5v0v35v0q0 6 4.5 10.5t10.5 4.5v0h701q7 0 11.5 -4.5t4.5 -11.5v-35v0q0 -6 -4 -10t-10 -4v0h-1
v0zM351 127l-160 -255h642l-153 255h-329z" />
    <glyph glyph-name="icon-set" unicode="&#xe620;" 
d="M903 334q4 29 4 50t-4 50l111 85q10 7 10 20q0 6 -3 12l-106 178q-4 8 -13.5 11t-18.5 0l-131 -51q-41 31 -89 50l-20 136q-1 8 -8.5 14.5t-16.5 6.5h-1h-210h-1q-9 0 -16.5 -6.5t-8.5 -15.5l-20 -135q-44 -18 -89 -50l-131 51q-5 2 -10 2q-15 0 -22 -13l-105 -178
q-4 -6 -4 -13q0 -12 10 -19l111 -85q-4 -28 -4 -50q0 -21 4 -50l-111 -85q-10 -7 -10 -20q0 -7 4 -12l105 -178q5 -8 14 -11t18 0l131 51q42 -31 89 -50l20 -135q1 -10 8.5 -16t17.5 -6h210q10 0 17.5 6t8.5 16l20 135q48 20 89 50l131 -51q9 -3 18.5 0t13.5 11l106 178
q3 5 3 12q0 13 -10 20zM512 179q-85 0 -145 60t-60 145t60 145t145 60t145 -60t60 -145t-60 -145t-145 -60z" />
    <glyph glyph-name="icon-home" unicode="&#xe621;" 
d="M576 -9h192q26 0 45 18.5t19 45.5v320h-640v-320q0 -26 18.5 -45t45.5 -19h192v256h128v-256zM512 823l512 -448h-1024z" />
    <glyph glyph-name="icon-more" unicode="&#xe622;" 
d="M166.5 269q47.5 0 81.5 33.5t34 81.5t-34 81.5t-81.5 33.5t-81.5 -33.5t-34 -81.5t34 -81.5t81.5 -33.5zM512 269q48 0 81.5 33.5t33.5 81.5t-33.5 81.5t-81.5 33.5t-81.5 -33.5t-33.5 -81.5t33.5 -81.5t81.5 -33.5zM857.5 269q47.5 0 81.5 33.5t34 81.5t-34 81.5
t-81.5 33.5t-81.5 -33.5t-34 -81.5t34 -81.5t81.5 -33.5z" />
  </font>
</defs>
</svg>
